<svg xmlns="http://www.w3.org/2000/svg" viewBox="0 0 24 24" width="24" height="24" color="#ffffff" fill="none">
    <!-- Outer Circle -->
    <circle cx="12" cy="12" r="10" stroke="currentColor" stroke-width="1.5" />

    <!-- Smaller Pause Icon -->
    <path d="M8.5 7C8.5 6.72386 8.72386 6.5 9 6.5H9.75C10.0261 6.5 10.25 6.72386 10.25 7V17C10.25 17.2761 10.0261 17.5 9.75 17.5H9C8.72386 17.5 8.5 17.2761 8.5 17V7Z" fill="currentColor"/>
    <path d="M13.5 7C13.5 6.72386 13.7239 6.5 14 6.5H14.75C15.0261 6.5 15.25 6.72386 15.25 7V17C15.25 17.2761 15.0261 17.5 14.75 17.5H14C13.7239 17.5 13.5 17.2761 13.5 17V7Z" fill="currentColor"/>
</svg>
